# xmcd
#
# Track frame offsets: 
#        150
#        17438
#        38163
#        55913
#        78163
#        100813
#        120750
#        140225
#        160488
#        178288
#        195975
#
# Disc length: 2898 seconds
#
# Revision: 0
# Processed by: cddbd v1.5.2PL0 Copyright (c) Steve Scherf et al.
# Submitted via: ExactAudioCopy v1.1
#
DISCID=870b500b
DTITLE=黎明詩 - Remember 無盡至愛
DYEAR=1993
DGENRE=Blues
TTITLE0=日夕想你
TTITLE1=Remember 無盡至愛
TTITLE2=敢恨敢愛
TTITLE3=風越急時愛越見
TTITLE4=我真是太傻
TTITLE5=真不該！為你心痴
TTITLE6=跟我渡過漫長夜
TTITLE7=真愛
TTITLE8=莫為愛傷悲
TTITLE9=當天初相見
TTITLE10=真不該！為你心痴（Remix）
EXTD=
EXTT0=
EXTT1=
EXTT2=
EXTT3=
EXTT4=
EXTT5=
EXTT6=
EXTT7=
EXTT8=
EXTT9=
EXTT10=
PLAYORDER=
